<?xml version="1.0" standalone="no"?>
<!DOCTYPE svg PUBLIC "-//W3C//DTD SVG 20010904//EN"
 "http://www.w3.org/TR/2001/REC-SVG-20010904/DTD/svg10.dtd">
<svg version="1.0" xmlns="http://www.w3.org/2000/svg"
 width="768.000000pt" height="768.000000pt" viewBox="0 0 768.000000 768.000000"
 preserveAspectRatio="xMidYMid meet">
<metadata>
Created by potrace 1.14, written by Peter Selinger 2001-2017
</metadata>
<g transform="translate(0.000000,768.000000) scale(0.100000,-0.100000)"
fill="#000000" stroke="none">
<path d="M0 7117 l0 -403 1643 1 c903 0 1650 -1 1659 -3 17 -4 18 -38 19 -526
0 -286 0 -530 0 -541 0 -11 0 -85 0 -165 0 -80 0 -152 0 -160 -3 -65 -1 -173
4 -179 2 -5 52 -37 111 -72 58 -35 137 -83 176 -107 67 -40 100 -47 118 -23 3
4 75 50 161 104 l156 96 1 763 c0 420 1 774 1 788 l1 25 1652 0 c1568 0 1653
1 1652 18 -1 9 1 17 5 17 9 0 6 54 -4 69 -3 6 -2 11 2 11 10 0 9 53 -2 69 -3
6 -2 11 2 11 10 0 9 53 -2 69 -3 6 -3 11 2 11 10 0 8 115 -3 131 -4 7 -3 10 2
6 10 -6 11 44 1 59 -3 6 -2 16 3 24 5 8 5 21 -1 31 -6 11 -5 20 1 24 6 4 6 15
0 30 -6 15 -6 25 0 25 5 0 5 12 0 29 -4 16 -6 32 -2 35 8 9 8 66 -1 66 -4 0
-4 8 2 17 6 11 6 24 0 35 -9 17 -175 18 -3684 18 l-3675 0 0 -403z"/>
<path d="M0 3144 l0 -2984 345 0 345 0 2 2516 3 2516 78 -51 c43 -28 80 -51
83 -51 3 0 10 -5 17 -10 20 -18 199 -131 224 -143 13 -5 23 -14 23 -19 0 -4 5
-8 10 -8 6 0 51 -27 101 -60 50 -33 93 -60 96 -60 2 0 23 -13 46 -29 23 -15
65 -42 92 -59 28 -17 55 -36 62 -42 7 -5 24 -15 38 -22 14 -6 25 -15 25 -20 0
-4 4 -8 9 -8 12 0 175 -102 179 -112 2 -5 8 -8 13 -8 9 0 89 -49 99 -61 3 -3
12 -8 20 -12 8 -4 57 -34 109 -67 51 -33 95 -60 97 -60 3 0 10 -5 17 -11 7 -5
48 -33 92 -61 44 -28 92 -59 107 -69 15 -11 30 -19 33 -19 3 0 11 -5 18 -10 7
-6 62 -42 122 -80 61 -38 115 -73 120 -77 6 -5 30 -20 55 -35 45 -26 145 -90
166 -105 5 -4 19 -13 30 -19 72 -42 380 -240 382 -246 2 -4 8 -8 13 -8 5 0 40
-20 77 -44 189 -123 274 -176 281 -176 4 0 17 -9 29 -20 16 -15 25 -18 35 -10
12 11 136 89 342 216 61 38 115 72 120 77 14 11 217 139 285 178 30 18 57 35
60 38 10 12 332 211 341 211 5 0 9 3 9 8 0 4 27 23 60 41 33 19 60 39 60 43 0
4 7 8 15 8 9 0 21 5 28 10 21 18 151 102 167 108 8 3 20 10 25 14 16 14 196
128 201 128 3 0 10 5 17 10 24 21 112 74 120 72 4 -1 7 3 7 8 0 6 7 10 15 10
8 0 15 5 15 10 0 6 7 10 15 10 8 0 15 5 15 10 0 6 7 10 15 10 8 0 15 4 15 9 0
5 6 11 13 13 18 4 441 271 445 280 2 4 7 8 12 8 4 0 135 81 291 179 156 98
286 177 288 175 3 -2 5 -1132 5 -2512 l1 -2507 332 -3 c310 -2 332 -1 335 15
3 10 1 28 -4 41 -4 12 -4 22 0 22 4 0 7 14 7 30 0 17 -3 30 -7 30 -4 0 -4 10
1 23 5 13 5 30 0 39 -6 10 -6 19 0 23 7 4 7 15 1 30 -5 14 -6 25 -2 25 4 0 7
11 7 25 0 14 -3 25 -7 25 -4 0 -3 11 2 25 6 15 6 26 0 30 -6 4 -7 13 -1 24 5
9 6 23 1 31 -4 7 -6 19 -3 26 8 21 9 144 1 144 -4 0 -5 6 -3 13 9 22 11 107 3
107 -4 0 -3 11 2 25 6 15 6 26 0 30 -6 4 -7 13 -1 23 6 11 6 24 0 34 -6 10 -6
19 0 23 7 4 7 15 1 30 -5 14 -6 25 -2 25 4 0 7 11 7 25 0 14 -3 25 -7 25 -4 0
-3 11 2 25 6 15 6 26 0 30 -6 4 -7 13 -1 24 5 9 6 23 1 31 -4 7 -6 19 -3 26 8
21 9 144 1 144 -4 0 -5 6 -3 13 9 22 11 107 3 107 -4 0 -3 11 2 25 6 15 6 26
0 30 -6 4 -7 13 -1 23 6 11 6 24 0 34 -6 10 -6 19 0 23 7 4 7 15 1 30 -5 14
-6 25 -2 25 4 0 7 11 7 25 0 14 -3 25 -7 25 -4 0 -3 11 2 25 6 15 6 26 0 30
-6 4 -7 13 -1 24 5 9 6 23 1 31 -4 7 -6 19 -3 26 8 21 9 144 1 144 -4 0 -5 6
-3 13 9 22 11 107 3 107 -4 0 -3 11 2 25 6 15 6 26 0 30 -6 4 -7 13 -1 23 6
11 6 24 0 34 -6 10 -6 19 0 23 7 4 7 15 1 30 -5 14 -6 25 -2 25 4 0 7 11 7 25
0 14 -3 25 -7 25 -4 0 -3 11 2 25 6 15 6 26 0 30 -6 4 -7 13 -1 24 5 9 6 23 2
30 -5 7 -5 29 -1 50 4 21 3 48 -2 60 -4 12 -4 20 0 17 8 -5 8 46 -1 60 -3 6
-2 16 3 24 5 8 5 21 -1 31 -6 11 -5 20 1 24 6 4 6 15 0 30 -5 14 -6 25 -2 25
4 0 7 11 7 25 0 14 -3 25 -7 25 -4 0 -4 10 1 23 5 12 5 32 0 45 -5 12 -5 22
-1 22 4 0 7 25 7 55 0 30 -3 55 -7 55 -4 0 -3 14 2 30 5 17 6 30 2 30 -4 0 -7
18 -7 40 0 22 3 40 6 40 7 0 3 56 -6 69 -3 6 -2 11 2 11 10 0 9 53 -2 69 -3 6
-2 11 2 11 10 0 9 53 -2 69 -3 6 -3 11 2 11 9 0 8 103 -1 119 -4 6 -4 11 1 11
4 0 8 25 8 55 0 30 -3 55 -7 55 -4 0 -3 11 2 25 6 15 6 26 0 30 -6 4 -7 13 -1
23 6 11 6 24 0 35 -6 9 -6 17 -2 17 4 0 8 25 8 55 0 30 -3 55 -7 55 -4 0 -3
11 2 25 6 15 6 26 0 30 -6 4 -7 13 -1 24 6 10 6 23 1 31 -5 8 -5 21 0 31 5 9
7 19 4 22 -8 8 -11 77 -4 77 8 0 4 55 -5 69 -3 6 -2 11 2 11 10 0 9 53 -2 69
-3 6 -2 11 2 11 10 0 9 53 -2 69 -3 6 -3 11 2 11 10 0 8 115 -3 131 -4 7 -3
10 2 6 10 -6 11 44 1 59 -3 6 -2 16 3 24 5 8 5 21 -1 31 -6 11 -5 20 1 24 6 4
6 15 0 30 -5 14 -6 25 -2 25 4 0 7 11 7 25 0 14 -3 25 -7 25 -4 0 -4 10 1 23
5 12 5 32 0 45 -5 12 -5 22 -1 22 4 0 7 25 7 55 0 30 -3 55 -7 55 -4 0 -3 14
2 30 5 17 5 30 1 30 -4 0 -5 22 -1 49 3 27 3 59 -2 71 -4 11 -4 19 0 16 8 -5
8 46 -1 60 -3 6 -2 16 3 24 5 8 5 21 -1 31 -6 11 -5 20 1 24 6 4 6 15 0 30 -5
14 -6 25 -2 25 4 0 7 11 7 25 0 14 -3 25 -7 25 -4 0 -4 10 1 23 5 12 5 32 0
45 -5 12 -5 22 -1 22 4 0 7 25 7 55 0 30 -3 55 -7 55 -4 0 -3 14 2 30 5 17 6
30 2 30 -4 0 -7 18 -7 40 0 22 3 40 6 40 7 0 3 56 -6 69 -3 6 -2 11 2 11 10 0
9 53 -2 69 -3 6 -2 11 2 11 10 0 9 53 -2 69 -3 6 -2 11 2 11 10 0 9 73 -2 89
-4 8 -110 11 -334 11 l-328 0 -44 -29 c-100 -66 -345 -218 -361 -224 -10 -3
-18 -11 -18 -16 0 -5 -11 -12 -25 -15 -14 -4 -25 -11 -25 -16 0 -6 -5 -10 -12
-10 -6 0 -26 -11 -45 -26 -18 -14 -33 -22 -33 -19 0 3 -6 1 -12 -5 -12 -10
-48 -34 -198 -128 -30 -19 -72 -47 -94 -61 -21 -14 -46 -30 -56 -36 -92 -53
-120 -71 -120 -77 0 -5 -5 -8 -11 -8 -6 0 -23 -8 -37 -19 -15 -10 -44 -28 -65
-40 -21 -12 -44 -26 -50 -32 -11 -9 -423 -270 -465 -294 -10 -5 -90 -56 -179
-112 -89 -57 -167 -103 -173 -103 -5 0 -10 -3 -10 -8 0 -4 -37 -29 -82 -57
-46 -27 -85 -52 -88 -55 -7 -7 -42 -29 -60 -37 -8 -4 -19 -11 -25 -16 -12 -10
-192 -123 -325 -204 -52 -31 -97 -60 -100 -63 -3 -3 -72 -47 -153 -98 l-148
-93 -45 31 c-25 16 -49 30 -55 30 -5 0 -9 5 -9 11 0 5 -4 8 -9 5 -5 -4 -11 -2
-13 2 -3 8 -173 118 -232 151 -17 9 -39 24 -50 34 -11 9 -24 17 -28 17 -5 0
-14 5 -21 10 -13 12 -44 31 -227 146 -69 44 -138 85 -153 93 -15 8 -27 18 -27
23 0 4 -5 8 -11 8 -6 0 -29 12 -52 28 -23 15 -49 32 -58 37 -9 6 -27 17 -40
26 -32 21 -174 111 -196 124 -10 6 -44 27 -76 48 -31 20 -60 37 -63 37 -2 0
-10 5 -17 11 -7 6 -140 91 -297 190 -157 98 -292 183 -300 189 -105 68 -172
110 -179 110 -5 0 -15 7 -22 16 -7 9 -20 19 -29 23 -8 3 -78 46 -155 94 -77
49 -149 94 -160 100 -11 7 -22 15 -25 18 -3 3 -20 15 -39 25 -34 19 -42 24
-96 58 -82 52 -110 72 -113 79 -2 4 -9 7 -14 7 -6 0 -53 27 -103 60 l-93 59
-336 0 -336 0 0 -2985z"/>
<path d="M1229 3883 c0 -10 -2 -219 -3 -464 l-4 -446 42 -25 c74 -46 560 -359
588 -379 15 -10 30 -19 33 -19 3 0 11 -5 18 -10 15 -14 267 -178 287 -188 8
-4 56 -33 105 -66 50 -32 123 -79 163 -105 187 -119 328 -211 339 -221 7 -5
15 -10 18 -10 3 0 49 -29 102 -63 54 -35 142 -92 195 -126 53 -35 122 -79 154
-100 l57 -37 1 -730 1 -729 363 -3 362 -2 0 734 0 735 183 116 c100 64 244
157 320 206 76 49 142 89 147 89 5 0 10 3 12 8 4 10 116 82 127 82 5 0 11 3
13 8 4 9 82 62 91 62 5 0 13 5 20 11 17 14 197 131 230 148 15 8 27 18 27 23
0 4 4 8 10 8 5 0 74 42 152 93 79 51 168 108 198 127 30 19 57 38 58 42 2 5 8
8 13 8 5 0 53 29 106 63 54 35 137 89 185 120 48 32 92 57 98 57 5 0 10 4 10
8 0 4 15 16 33 27 17 10 37 24 43 30 8 7 10 147 9 468 -1 251 -3 459 -6 461
-4 4 -202 -122 -226 -143 -7 -6 -14 -11 -17 -11 -7 0 -259 -163 -274 -177 -7
-7 -18 -13 -23 -13 -5 0 -15 -5 -22 -10 -23 -21 -338 -220 -347 -220 -4 0 -10
-3 -12 -7 -3 -8 -70 -52 -343 -227 -82 -52 -155 -99 -161 -103 -5 -5 -17 -12
-26 -18 -9 -5 -76 -48 -148 -95 -72 -47 -139 -89 -149 -95 -18 -11 -177 -112
-281 -180 -201 -131 -413 -265 -419 -265 -4 0 -16 8 -27 18 -10 9 -30 23 -44
29 -14 7 -95 58 -180 114 -85 56 -167 108 -181 116 -15 7 -32 20 -39 28 -7 8
-16 15 -21 15 -5 0 -64 36 -130 80 -67 44 -123 80 -124 80 -3 0 -163 104 -181
117 -23 18 -50 34 -66 39 -10 4 -18 10 -18 15 0 5 -7 9 -15 9 -8 0 -15 5 -15
10 0 6 -4 10 -9 10 -6 0 -68 37 -138 83 -299 194 -343 223 -360 232 -10 6 -33
20 -50 33 -17 12 -34 22 -37 22 -4 0 -12 5 -19 11 -16 14 -148 99 -153 99 -3
0 -10 5 -17 11 -15 13 -618 399 -623 399 -2 0 -4 -8 -5 -17z"/>
</g>
</svg>
